<svg width="20" height="13" viewBox="0 0 20 13" fill="none" xmlns="http://www.w3.org/2000/svg">
<path d="M16.0292 4.50002C15.5636 4.49689 15.1198 4.57189 14.7042 4.71564L13.6761 3.00001H16.2511C16.6667 3.00001 17.0011 2.66563 17.0011 2.25001V1.25C17.0011 0.834376 16.6667 0.5 16.2511 0.5H14.8354C14.6229 0.5 14.4198 0.590625 14.2792 0.746876L13.1073 2.05001L12.3948 0.862501C12.2573 0.637501 12.0136 0.5 11.7511 0.5H9.25105C8.97605 0.5 8.75105 0.725001 8.75105 1V1.5C8.75105 1.77501 8.97605 2.00001 9.25105 2.00001H11.3261L11.9261 3.00001H7.12292C6.56979 2.27813 5.71979 1.75001 4.00103 1.75001H2.26665C1.84477 1.75001 1.49164 2.09376 1.50102 2.51563C1.50727 2.92188 1.84164 3.25001 2.25102 3.25001H4.00103C4.76666 3.25001 5.21041 3.59064 5.49478 4.02501L5.14166 4.66564C4.73541 4.54377 4.30103 4.48752 3.85103 4.50314C1.74789 4.57814 0.0510121 6.30002 0.00101191 8.40628C-0.0489883 10.6594 1.76039 12.5 4.00103 12.5C5.86354 12.5 7.42917 11.225 7.87604 9.50004H10.5073C10.9354 9.50004 11.2761 9.14378 11.2573 8.71566C11.1917 7.24378 11.8042 5.78752 13.0136 4.80939L13.4042 5.45939C12.5417 6.20002 11.9948 7.30003 12.0042 8.52816C12.0198 10.7032 13.7917 12.4813 15.9667 12.5C18.2042 12.5219 20.023 10.7032 20.0042 8.46566C19.9823 6.29065 18.2042 4.51564 16.0292 4.50002ZM4.00103 11C2.6229 11 1.50102 9.87816 1.50102 8.50003C1.50102 7.1219 2.6229 6.00002 4.00103 6.00002C4.13228 6.00002 4.26353 6.0094 4.39165 6.03127L3.09477 8.38753C2.81977 8.88753 3.18227 9.50004 3.75103 9.50004H6.29166C5.90416 10.3813 5.02291 11 4.00103 11ZM18.498 8.63753C18.4292 9.90629 17.4042 10.9313 16.1386 10.9969C14.6979 11.075 13.5011 9.92504 13.5011 8.50003C13.5011 7.83128 13.7636 7.22503 14.1917 6.77815L15.7355 9.35316C15.8761 9.59066 16.1855 9.66566 16.423 9.52504L16.8511 9.26879C17.0886 9.12816 17.1636 8.81878 17.023 8.58128L15.5042 6.05315C15.6667 6.01877 15.8323 6.00315 16.0011 6.00315C17.4261 6.00002 18.573 7.1969 18.498 8.63753Z" fill="black"/>
</svg>
