<svg width="25" height="18" viewBox="0 0 25 18" fill="none" xmlns="http://www.w3.org/2000/svg">
<path d="M3.75 7.75C5.12891 7.75 6.25 6.62891 6.25 5.25C6.25 3.87109 5.12891 2.75 3.75 2.75C2.37109 2.75 1.25 3.87109 1.25 5.25C1.25 6.62891 2.37109 7.75 3.75 7.75ZM21.25 7.75C22.6289 7.75 23.75 6.62891 23.75 5.25C23.75 3.87109 22.6289 2.75 21.25 2.75C19.8711 2.75 18.75 3.87109 18.75 5.25C18.75 6.62891 19.8711 7.75 21.25 7.75ZM22.5 9H20C19.3125 9 18.6914 9.27734 18.2383 9.72656C19.8125 10.5898 20.9297 12.1484 21.1719 14H23.75C24.4414 14 25 13.4414 25 12.75V11.5C25 10.1211 23.8789 9 22.5 9ZM12.5 9C14.918 9 16.875 7.04297 16.875 4.625C16.875 2.20703 14.918 0.25 12.5 0.25C10.082 0.25 8.125 2.20703 8.125 4.625C8.125 7.04297 10.082 9 12.5 9ZM15.5 10.25H15.1758C14.3633 10.6406 13.4609 10.875 12.5 10.875C11.5391 10.875 10.6406 10.6406 9.82422 10.25H9.5C7.01562 10.25 5 12.2656 5 14.75V15.875C5 16.9102 5.83984 17.75 6.875 17.75H18.125C19.1602 17.75 20 16.9102 20 15.875V14.75C20 12.2656 17.9844 10.25 15.5 10.25ZM6.76172 9.72656C6.30859 9.27734 5.6875 9 5 9H2.5C1.12109 9 0 10.1211 0 11.5V12.75C0 13.4414 0.558594 14 1.25 14H3.82422C4.07031 12.1484 5.1875 10.5898 6.76172 9.72656Z" fill="#6D6D6D"/>
</svg>
