<svg width="47" height="38" viewBox="0 0 47 38" fill="none" xmlns="http://www.w3.org/2000/svg">
<path d="M43.6989 31.6404L43.6985 31.6406L42.0756 32.3161L40.6465 32.9109L40.0969 31.4639L37.255 23.9818L36.849 22.9126L37.7724 22.238C40.7225 20.0826 41.7028 16.1173 39.8916 12.9795L39.8907 12.9778L33.5314 1.92727C33.3223 1.5641 32.8693 1.40336 32.4647 1.56756C32.4639 1.5679 32.4631 1.56823 32.4623 1.56857L24.075 5.04638L23.5005 5.28462L22.926 5.04638L14.5324 1.56598L14.5308 1.56529C14.1379 1.40184 13.6835 1.55595 13.4697 1.92714L43.6989 31.6404ZM43.6989 31.6404C44.1096 31.4693 44.5535 31.504 44.9171 31.6962L35.2876 35.6922C35.4087 35.2971 35.6989 34.9558 36.1128 34.7832C36.1129 34.7832 36.1131 34.7831 36.1132 34.783L37.7357 34.1077L39.0771 33.5493L38.5617 32.1908L35.6757 24.5839L35.2622 23.4939L34.1039 23.6255C33.9321 23.645 33.8065 23.6619 33.7061 23.6754C33.5368 23.6982 33.4388 23.7114 33.3113 23.7114C30.141 23.7114 27.2718 21.6874 26.4328 18.5599C26.4327 18.5598 26.4327 18.5597 26.4327 18.5595L24.9494 13.0236L23.5005 7.6159L22.0516 13.0236L20.5683 18.5595C20.5683 18.5597 20.5683 18.5598 20.5682 18.5599C19.7292 21.6874 16.86 23.7114 13.6897 23.7114C13.5622 23.7114 13.4642 23.6982 13.2949 23.6754C13.1945 23.6619 13.0689 23.645 12.8971 23.6255L11.7398 23.494L11.3257 24.5827L8.43241 32.1896L7.91543 33.5489L9.258 34.1077L10.8804 34.783C10.8806 34.7831 10.8807 34.7832 10.8809 34.7832C11.2912 34.9543 11.5811 35.2944 11.7027 35.6905L2.07742 31.6938C2.44349 31.4967 2.89028 31.4615 3.30206 31.6331L3.3025 31.6332L4.92539 32.3088L6.35445 32.9036L6.90408 31.4566L9.74597 23.9744L10.1526 22.9038L9.22696 22.2294C6.2813 20.0834 5.30336 16.1189 7.11033 12.9778C7.11037 12.9777 7.1104 12.9777 7.11043 12.9776L13.4697 1.92726L43.6989 31.6404ZM35.3358 36.664L35.3348 36.6616L35.3358 36.664ZM19.6874 13.2921L21.2689 13.9481L21.7112 12.294L23.0991 7.10273L23.4385 5.83322L22.2246 5.32976L15.2851 2.45145L14.068 1.94662L13.4105 3.08854L10.7302 7.74376L9.87815 9.22357L11.4554 9.87777L19.6874 13.2921ZM25.2898 12.294L25.7321 13.9481L27.3136 13.2921L35.5456 9.87777L37.1229 9.22357L36.2708 7.74376L33.5905 3.08854L32.933 1.94662L31.7159 2.45145L24.7764 5.32976L23.5625 5.83322L23.9019 7.10273L25.2898 12.294Z" stroke="#6D6D6D" stroke-width="3"/>
</svg>
