<svg width="40" height="41" viewBox="0 0 40 41" fill="none" xmlns="http://www.w3.org/2000/svg">
<path d="M28.7121 26.006L28.7128 26.0051C28.8316 25.8596 28.9944 25.7567 29.1767 25.7118C29.3588 25.6669 29.5504 25.6823 29.723 25.7556C29.7233 25.7557 29.7235 25.7558 29.7238 25.756L38.4274 29.4861C38.4281 29.4864 38.4289 29.4867 38.4296 29.487C38.6182 29.5697 38.7723 29.7153 38.8656 29.8989C38.9588 30.0826 38.9854 30.2929 38.9408 30.4939C38.9406 30.4947 38.9404 30.4955 38.9402 30.4963L37.075 38.5789C37.0309 38.7699 36.9233 38.9403 36.7699 39.0622C36.6164 39.1842 36.4262 39.2506 36.2301 39.2504H36.2295C16.8638 39.2504 1.14331 23.5599 1.14331 4.16423L1.14331 4.16401C1.14327 3.96805 1.20965 3.77786 1.33161 3.62448C1.45355 3.47114 1.62385 3.36365 1.81473 3.31954C1.81478 3.31953 1.81482 3.31952 1.81487 3.31951L9.8998 1.45375C9.90022 1.45365 9.90065 1.45355 9.90108 1.45346C10.1002 1.4085 10.3089 1.43428 10.4911 1.5264C10.673 1.61833 10.8172 1.77058 10.8992 1.95707L14.6307 10.6639C14.7045 10.8361 14.7202 11.0276 14.6753 11.2095C14.6305 11.3914 14.5277 11.5537 14.3823 11.6719L14.3799 11.6739L9.66695 15.5314L9.06297 16.0257L9.39583 16.7317C12.3492 22.9957 17.3903 28.0367 23.6543 30.9901L24.3602 31.323L24.8546 30.719L28.7121 26.006Z" stroke="#EDEFEE" stroke-width="2"/>
</svg>
