<svg width="56" height="56" viewBox="0 0 56 56" fill="none" xmlns="http://www.w3.org/2000/svg">
<path d="M0 28C0 12.544 12.544 0 28 0C43.456 0 56 12.544 56 28C56 43.456 43.456 56 28 56C12.544 56 0 43.456 0 28Z" fill="#B3B3B3"/>
<path fill-rule="evenodd" clip-rule="evenodd" d="M28.2967 22.0913L32.2 15.3999L42 32.1999H33.5006C33.5661 31.7426 33.6 31.2752 33.6 30.7999C33.6 27.0109 31.4461 23.7219 28.2967 22.0913ZM28.2967 22.0913C26.9497 21.3939 25.4206 20.9999 23.8 20.9999C18.3904 20.9999 14 25.3903 14 30.7999C14 36.2095 18.3904 40.5999 23.8 40.5999C28.7343 40.5999 32.8206 36.9471 33.5006 32.1999H22.4L28.2967 22.0913Z" fill="white"/>
</svg>
